<svg className='w-8 h-8' viewBox="0 0 33 33" fill="none" xmlns="http://www.w3.org/2000/svg">
    <path fill-rule="evenodd" clip-rule="evenodd" d="M12.0559 1.71875H17.875C18.1485 1.71875 18.4108 1.8274 18.6042 2.0208L28.2292 11.6458C28.4226 11.8392 28.5312 12.1015 28.5312 12.375V23.6941C28.5312 24.8119 28.5312 25.7133 28.4716 26.4433C28.4102 27.1949 28.2804 27.855 27.9693 28.4659C27.475 29.4361 26.6861 30.2248 25.7159 30.7193C25.105 31.0304 24.4449 31.1602 23.6933 31.2216C22.9633 31.2812 22.0619 31.2812 20.9441 31.2812H12.0558C10.9382 31.2812 10.0367 31.2812 9.30673 31.2216C8.55511 31.1602 7.89491 31.0304 7.28412 30.7193C6.3139 30.2248 5.52509 29.4361 5.03075 28.4659C4.71954 27.855 4.58979 27.1949 4.52837 26.4433C4.46874 25.7133 4.46874 24.8117 4.46875 23.6941V9.30586C4.46874 8.18821 4.46874 7.28673 4.52837 6.55673C4.58979 5.80511 4.71954 5.14491 5.03075 4.53412C5.52509 3.5639 6.3139 2.77509 7.28412 2.28075C7.89491 1.96954 8.55511 1.83979 9.30673 1.77837C10.0367 1.71874 10.9382 1.71874 12.0559 1.71875ZM9.47469 3.83402C8.8506 3.88502 8.49206 3.98008 8.22047 4.11846C7.63835 4.41506 7.16506 4.88835 6.86846 5.47047C6.73008 5.74206 6.63502 6.1006 6.58402 6.72469C6.53205 7.3608 6.53125 8.17788 6.53125 9.35V23.65C6.53125 24.8222 6.53205 25.6392 6.58402 26.2753C6.63502 26.8994 6.73008 27.258 6.86846 27.5296C7.16506 28.1116 7.63835 28.5849 8.22047 28.8816C8.49206 29.0199 8.8506 29.1149 9.47469 29.1659C10.1108 29.2179 10.9279 29.2188 12.1 29.2188H20.9C22.0722 29.2188 22.8892 29.2179 23.5253 29.1659C24.1494 29.1149 24.508 29.0199 24.7796 28.8816C25.3616 28.5849 25.8349 28.1116 26.1316 27.5296C26.2699 27.258 26.3649 26.8994 26.4159 26.2753C26.4679 25.6392 26.4688 24.8222 26.4688 23.65V13.4062H20.039C19.6849 13.4063 19.3597 13.4063 19.0879 13.3841C18.7949 13.3601 18.4742 13.3053 18.1576 13.144C17.7048 12.9133 17.3367 12.5452 17.106 12.0924C16.9447 11.7757 16.8898 11.4551 16.8659 11.1621C16.8438 10.8903 16.8438 10.5651 16.8438 10.2111V3.78125H12.1C10.9279 3.78125 10.1108 3.78205 9.47469 3.83402ZM18.9062 5.23966L25.0103 11.3438H20.075C19.673 11.3438 19.4334 11.343 19.2559 11.3284C19.1476 11.3196 19.1019 11.3079 19.0898 11.3041C19.0283 11.2718 18.9782 11.2216 18.9459 11.1602C18.9421 11.148 18.9304 11.1025 18.9215 10.9941C18.9071 10.8166 18.9062 10.5771 18.9062 10.175V5.23966ZM18.9471 11.1638L18.9464 11.1618L18.9471 11.1638ZM19.0862 11.3029L19.0883 11.3036L19.0862 11.3029Z" fill="#0093FF"/>
    <path fill-rule="evenodd" clip-rule="evenodd" d="M16.5 15.4688C15.9305 15.4688 15.4687 15.9305 15.4687 16.5V23.6353L13.1042 21.2708C12.7015 20.8681 12.0485 20.8681 11.6458 21.2708C11.2431 21.6736 11.2431 22.3264 11.6458 22.7292L15.7708 26.8542C16.1736 27.2569 16.8264 27.2569 17.2292 26.8542L21.3542 22.7292C21.7569 22.3264 21.7569 21.6736 21.3542 21.2708C20.9514 20.8681 20.2986 20.8681 19.8958 21.2708L17.5312 23.6353V16.5C17.5312 15.9305 17.0695 15.4688 16.5 15.4688Z" fill="#0093FF"/>
</svg>
