<svg className='w-8 h-8' viewBox="0 0 33 33" fill="none" xmlns="http://www.w3.org/2000/svg">
    <g clip-path="url(#clip0_210_6)">
        <path fill-rule="evenodd" clip-rule="evenodd" d="M16.5 0C7.38733 0 0 7.38733 0 16.5C0 25.6127 7.38733 33 16.5 33C25.6127 33 33 25.6127 33 16.5C33 7.38733 25.6127 0 16.5 0ZM7.9211 13.666H11.6603V24.901H7.9211V13.666ZM11.9067 10.1906C11.8824 9.08902 11.0947 8.25 9.81544 8.25C8.53627 8.25 7.7 9.08902 7.7 10.1906C7.7 11.2694 8.51159 12.1325 9.7669 12.1325H9.79082C11.0947 12.1325 11.9067 11.2694 11.9067 10.1906ZM20.8403 13.4022C23.3009 13.4022 25.1456 15.0083 25.1456 18.4592L25.1454 24.901H21.4063V18.8902C21.4063 17.3805 20.8652 16.3503 19.5116 16.3503C18.4786 16.3503 17.8632 17.0448 17.593 17.7156C17.4941 17.956 17.4699 18.2909 17.4699 18.6267V24.9013H13.7301C13.7301 24.9013 13.7794 14.7205 13.7301 13.6663H17.4699V15.2576C17.9661 14.4926 18.855 13.4022 20.8403 13.4022Z" fill="#0093FF"/>
    </g>
    <defs>
        <clipPath id="clip0_210_6">
            <rect className='w-8 h-8' fill="white"/>
        </clipPath>
    </defs>
</svg>
