<svg className='w-8 h-8' viewBox="0 0 33 33" fill="none" xmlns="http://www.w3.org/2000/svg">
    <path fill-rule="evenodd" clip-rule="evenodd" d="M1.71875 16.5C1.71875 12.1335 5.25849 8.59375 9.625 8.59375H12.375C12.9445 8.59375 13.4062 9.05546 13.4062 9.625C13.4062 10.1945 12.9445 10.6562 12.375 10.6562H9.625C6.39759 10.6562 3.78125 13.2726 3.78125 16.5C3.78125 19.7274 6.39759 22.3437 9.625 22.3437H12.375C12.9445 22.3437 13.4062 22.8055 13.4062 23.375C13.4062 23.9445 12.9445 24.4062 12.375 24.4062H9.625C5.25849 24.4062 1.71875 20.8664 1.71875 16.5ZM19.5938 9.625C19.5938 9.05546 20.0555 8.59375 20.625 8.59375H23.375C27.7414 8.59375 31.2812 12.1335 31.2812 16.5C31.2812 20.8664 27.7414 24.4062 23.375 24.4062H20.625C20.0555 24.4062 19.5938 23.9445 19.5938 23.375C19.5938 22.8055 20.0555 22.3437 20.625 22.3437H23.375C26.6024 22.3437 29.2188 19.7274 29.2188 16.5C29.2188 13.2726 26.6024 10.6562 23.375 10.6562H20.625C20.0555 10.6562 19.5938 10.1945 19.5938 9.625ZM9.96875 16.5C9.96875 15.9305 10.4305 15.4687 11 15.4687H22C22.5695 15.4687 23.0312 15.9305 23.0312 16.5C23.0312 17.0695 22.5695 17.5312 22 17.5312H11C10.4305 17.5312 9.96875 17.0695 9.96875 16.5Z" fill="#0093FF"/>
</svg>
