<svg id="visual" viewBox="0 0 960 540" fill="#CBCBCB" width="960" height="540" xmlns="http://www.w3.org/2000/svg" xmlns:xlink="http://www.w3.org/1999/xlink" version="1.1">
<g>
<g transform="translate(635 524)">
<path d="M0 -50.4L43.6 -25.2L43.6 25.2L0 50.4L-43.6 25.2L-43.6 -25.2Z" fill="inherit">
</path>
</g>
<g transform="translate(819 171)">
<path d="M0 -43L37.2 -21.5L37.2 21.5L0 43L-37.2 21.5L-37.2 -21.5Z" fill="inherit">
</path>
</g>
<g transform="translate(163 92)">
<path d="M0 -49L42.4 -24.5L42.4 24.5L0 49L-42.4 24.5L-42.4 -24.5Z" fill="inherit">
</path>
</g>
<g transform="translate(551 159)">
<path d="M0 -22L19.1 -11L19.1 11L0 22L-19.1 11L-19.1 -11Z" fill="inherit">
</path>
</g>
<g transform="translate(779 30)">
<path d="M0 -30L26 -15L26 15L0 30L-26 15L-26 -15Z" fill="inherit">
</path>
</g>
<g transform="translate(480 514)">
<path d="M0 -49L42.4 -24.5L42.4 24.5L0 49L-42.4 24.5L-42.4 -24.5Z" fill="inherit">
</path>
</g>
<g transform="translate(844 495)">
<path d="M0 -29L25.1 -14.5L25.1 14.5L0 29L-25.1 14.5L-25.1 -14.5Z" fill="inherit">
</path>
</g>
<g transform="translate(612 45)">
<path d="M0 -18L15.6 -9L15.6 9L0 18L-15.6 9L-15.6 -9Z" fill="inherit">
</path>
</g>
</g>
</svg>
