<svg id="visual" viewBox="0 0 960 540" width="960" height="540" fill="#E4E4E4" xmlns="http://www.w3.org/2000/svg" xmlns:xlink="http://www.w3.org/1999/xlink" version="1.1">
<g>
<g transform="translate(637 293)">
<path d="M0 -78.5L68 -39.2L68 39.2L0 78.5L-68 39.2L-68 -39.2Z" fill="inherit">
</path>
</g>
<g transform="translate(394 403)">
<path d="M0 -57L49.4 -28.5L49.4 28.5L0 57L-49.4 28.5L-49.4 -28.5Z" fill="inherit">
</path>
</g>
<g transform="translate(658 28)">
<path d="M0 -62L53.7 -31L53.7 31L0 62L-53.7 31L-53.7 -31Z" fill="inherit">
</path>
</g>
<g transform="translate(86 233)">
<path d="M0 -36L31.2 -18L31.2 18L0 36L-31.2 18L-31.2 -18Z" fill="inherit">
</path>
</g>
<g transform="translate(101 26)">
<path d="M0 -64L55.4 -32L55.4 32L0 64L-55.4 32L-55.4 -32Z" fill="inherit">
</path>
</g>
<g transform="translate(920 518)">
<path d="M0 -55L47.6 -27.5L47.6 27.5L0 55L-47.6 27.5L-47.6 -27.5Z" fill="inherit">
</path>
</g>
<g transform="translate(863 112)">
<path d="M0 -39L33.8 -19.5L33.8 19.5L0 39L-33.8 19.5L-33.8 -19.5Z" fill="inherit">
</path>
</g>
<g transform="translate(751 531)">
<path d="M0 -59L51.1 -29.5L51.1 29.5L0 59L-51.1 29.5L-51.1 -29.5Z" fill="inherit">
</path>
</g>
<g transform="translate(822 299)">
<path d="M0 -60L52 -30L52 30L0 60L-52 30L-52 -30Z" fill="inherit">
</path>
</g>
<g transform="translate(456 196)">
<path d="M0 -31L26.8 -15.5L26.8 15.5L0 31L-26.8 15.5L-26.8 -15.5Z" fill="inherit">
</path>
</g>
<g transform="translate(126 517)">
<path d="M0 -19L16.5 -9.5L16.5 9.5L0 19L-16.5 9.5L-16.5 -9.5Z" fill="inherit">
</path>
</g>
<g transform="translate(273 163)">
<path d="M0 -54L46.8 -27L46.8 27L0 54L-46.8 27L-46.8 -27Z" fill="inherit">
</path>
</g>
</g>
</svg>
