<svg id="visual" viewBox="0 0 960 540" fill="#E3E3E3" width="960" height="540" xmlns="http://www.w3.org/2000/svg" xmlns:xlink="http://www.w3.org/1999/xlink" version="1.1">
<g>
<g transform="translate(79 223)">
<path d="M0 -78.5L68 -39.2L68 39.2L0 78.5L-68 39.2L-68 -39.2Z" fill="#inherit">
</path>
</g>
<g transform="translate(227 331)">
<path d="M0 -19L16.5 -9.5L16.5 9.5L0 19L-16.5 9.5L-16.5 -9.5Z" fill="#inherit">
</path>
</g>
<g transform="translate(728 267)">
<path d="M0 -60L52 -30L52 30L0 60L-52 30L-52 -30Z" fill="#inherit">
</path>
</g>
<g transform="translate(349 464)">
<path d="M0 -37L32 -18.5L32 18.5L0 37L-32 18.5L-32 -18.5Z" fill="#inherit">
</path>
</g>
<g transform="translate(956 493)">
<path d="M0 -73L63.2 -36.5L63.2 36.5L0 73L-63.2 36.5L-63.2 -36.5Z" fill="#inherit">
</path>
</g>
<g transform="translate(509 506)">
<path d="M0 -77L66.7 -38.5L66.7 38.5L0 77L-66.7 38.5L-66.7 -38.5Z" fill="#inherit">
</path>
</g>
<g transform="translate(344 33)">
<path d="M0 -62L53.7 -31L53.7 31L0 62L-53.7 31L-53.7 -31Z" fill="#inherit">
</path>
</g>
<g transform="translate(585 162)">
<path d="M0 -23L19.9 -11.5L19.9 11.5L0 23L-19.9 11.5L-19.9 -11.5Z" fill="#inherit">
</path>
</g>
<g transform="translate(890 194)">
<path d="M0 -63L54.6 -31.5L54.6 31.5L0 63L-54.6 31.5L-54.6 -31.5Z" fill="#inherit">
</path>
</g>
<g transform="translate(29 531)">
<path d="M0 -31L26.8 -15.5L26.8 15.5L0 31L-26.8 15.5L-26.8 -15.5Z" fill="#inherit">
</path>
</g>
<g transform="translate(114 61)">
<path d="M0 -39L33.8 -19.5L33.8 19.5L0 39L-33.8 19.5L-33.8 -19.5Z" fill="#inherit">
</path>
</g>
<g transform="translate(424 295)">
<path d="M0 -36L31.2 -18L31.2 18L0 36L-31.2 18L-31.2 -18Z" fill="#inherit">
</path>
</g>
</g>
</svg>
