<svg id="visual" viewBox="0 0 960 540" fill="#2F2F2F" width="960" height="540" xmlns="http://www.w3.org/2000/svg" xmlns:xlink="http://www.w3.org/1999/xlink" version="1.1">
<g>
<g transform="translate(44 402)">
<path d="M0 -78.5L68 -39.2L68 39.2L0 78.5L-68 39.2L-68 -39.2Z" fill="inherit">
</path>
</g>
<g transform="translate(593 465)">
<path d="M0 -33L28.6 -16.5L28.6 16.5L0 33L-28.6 16.5L-28.6 -16.5Z" fill="inherit">
</path>
</g>
<g transform="translate(600 214)">
<path d="M0 -42L36.4 -21L36.4 21L0 42L-36.4 21L-36.4 -21Z" fill="inherit">
</path>
</g>
<g transform="translate(812 137)">
<path d="M0 -68L58.9 -34L58.9 34L0 68L-58.9 34L-58.9 -34Z" fill="inherit">
</path>
</g>
<g transform="translate(277 177)">
<path d="M0 -48L41.6 -24L41.6 24L0 48L-41.6 24L-41.6 -24Z" fill="inherit">
</path>
</g>
<g transform="translate(840 361)">
<path d="M0 -22L19.1 -11L19.1 11L0 22L-19.1 11L-19.1 -11Z" fill="inherit">
</path>
</g>
<g transform="translate(86 228)">
<path d="M0 -34L29.4 -17L29.4 17L0 34L-29.4 17L-29.4 -17Z" fill="inherit">
</path>
</g>
<g transform="translate(111 67)">
<path d="M0 -41L35.5 -20.5L35.5 20.5L0 41L-35.5 20.5L-35.5 -20.5Z" fill="inherit">
</path>
</g>
<g transform="translate(778 523)">
<path d="M0 -45L39 -22.5L39 22.5L0 45L-39 22.5L-39 -22.5Z" fill="inherit">
</path>
</g>
<g transform="translate(219 491)">
<path d="M0 -59L51.1 -29.5L51.1 29.5L0 59L-51.1 29.5L-51.1 -29.5Z" fill="inherit">
</path>
</g>
<g transform="translate(382 407)">
<path d="M0 -57L49.4 -28.5L49.4 28.5L0 57L-49.4 28.5L-49.4 -28.5Z" fill="inherit">
</path>
</g>
<g transform="translate(940 488)">
<path d="M0 -32L27.7 -16L27.7 16L0 32L-27.7 16L-27.7 -16Z" fill="inherit">
</path>
</g>
</g>
</svg>
